# Blender v2.79 (sub 0) OBJ File: 'Road_Set.blend'
# www.blender.org
mtllib Road_Set.mtl
o Plane
v 3.257477 0.000000 1.003324
v 4.260801 0.000000 1.003324
v 3.257477 0.000000 -1.003324
v 4.260801 0.000000 -1.003324
v 2.941216 0.000000 1.003324
v 2.941216 0.000000 -1.003324
v 4.577063 0.000000 1.003324
v 4.577063 0.000000 -1.003324
v 3.257477 0.004290 -1.003324
v 3.257477 0.004290 1.003324
v 4.260801 0.004290 1.003324
v 4.260801 0.004290 -1.003324
v 2.941216 0.004290 -1.003324
v 2.941216 0.004290 1.003324
v 4.577063 0.004290 1.003324
v 4.577063 0.004290 -1.003324
v 3.257477 0.002060 1.003324
v 4.260801 0.002060 1.003324
v 3.257477 0.002060 -1.003324
v 4.260801 0.002060 -1.003324
v 2.941216 0.002060 1.003324
v 2.941216 0.002060 -1.003324
v 4.577063 0.002060 1.003324
v 4.577063 0.002060 -1.003324
v 3.257477 0.006350 -1.003324
v 3.257477 0.006350 1.003324
v 4.260801 0.006350 1.003324
v 4.260801 0.006350 -1.003324
v 2.941216 0.006350 -1.003324
v 2.941216 0.006350 1.003324
v 4.577063 0.006350 1.003324
v 4.577063 0.006350 -1.003324
vt 0.000155 0.000155
vt 0.000155 0.624821
vt 0.624821 0.624821
vt 0.624821 0.000155
vt 0.013681 0.999845
vt 0.021414 0.988337
vt 0.010150 0.634600
vt 0.000155 0.625130
vt 0.544336 0.636639
vt 0.552069 0.625131
vt 0.634600 0.555601
vt 0.988337 0.544336
vt 0.990375 0.010150
vt 0.636638 0.021415
vt 0.555601 0.990376
vt 0.999845 0.000155
vt 0.999845 0.552069
vt 0.625130 0.565596
vt 0.625130 0.013682
vt 0.565596 0.999846
vt 0.000155 0.000155
vt 0.624821 0.000155
vt 0.624821 0.624821
vt 0.000155 0.624821
vt 0.013681 0.999845
vt 0.000155 0.625130
vt 0.010150 0.634600
vt 0.021414 0.988337
vt 0.552069 0.625131
vt 0.544336 0.636639
vt 0.634600 0.555601
vt 0.636638 0.021415
vt 0.990375 0.010150
vt 0.988337 0.544336
vt 0.555601 0.990376
vt 0.999845 0.000155
vt 0.999845 0.552069
vt 0.625130 0.565596
vt 0.625130 0.013682
vt 0.565596 0.999846
vn 0.0000 -1.0000 0.0000
vn 0.0000 0.0000 -1.0000
vn -1.0000 0.0000 0.0000
vn 1.0000 0.0000 0.0000
vn 0.0000 0.0000 1.0000
vn 0.0000 1.0000 0.0000
usemtl Material.001
s off
f 1/1/1 3/2/1 4/3/1 2/4/1
f 2/5/2 11/6/2 15/7/2 7/8/2
f 7/8/3 15/7/3 16/9/3 8/10/3
f 10/11/1 14/12/1 13/13/1 9/14/1
f 12/15/1 16/9/1 15/7/1 11/6/1
f 6/16/4 13/13/4 14/12/4 5/17/4
f 1/18/3 10/11/3 9/14/3 3/19/3
f 8/10/5 16/9/5 12/15/5 4/20/5
f 3/19/5 9/14/5 13/13/5 6/16/5
f 5/17/2 14/12/2 10/11/2 1/18/2
f 4/20/4 12/15/4 11/6/4 2/5/4
f 17/21/6 18/22/6 20/23/6 19/24/6
f 18/25/5 23/26/5 31/27/5 27/28/5
f 23/26/4 24/29/4 32/30/4 31/27/4
f 26/31/6 25/32/6 29/33/6 30/34/6
f 28/35/6 27/28/6 31/27/6 32/30/6
f 22/36/3 21/37/3 30/34/3 29/33/3
f 17/38/4 19/39/4 25/32/4 26/31/4
f 24/29/2 20/40/2 28/35/2 32/30/2
f 19/39/2 22/36/2 29/33/2 25/32/2
f 21/37/5 17/38/5 26/31/5 30/34/5
f 20/40/3 18/25/3 27/28/3 28/35/3
f 7/8/4 8/10/4 24/29/4 23/26/4
f 4/3/2 3/2/2 19/24/2 20/23/2
f 2/5/5 7/8/5 23/26/5 18/25/5
f 6/16/3 5/17/3 21/37/3 22/36/3
f 8/10/2 4/20/2 20/40/2 24/29/2
f 3/19/2 6/16/2 22/36/2 19/39/2
f 1/1/5 2/4/5 18/22/5 17/21/5
f 5/17/5 1/18/5 17/38/5 21/37/5
